<svg xmlns="http://www.w3.org/2000/svg" viewBox="0 0 160.69 59.04"><defs><style>.cls-1{fill:#f55b50;}</style></defs><g id="Capa_2" data-name="Capa 2"><g id="Capa_1-2" data-name="Capa 1"><path class="cls-1" d="M7.75,54.24a3.82,3.82,0,0,1-1,2.83,3.84,3.84,0,0,1-2.83,1H0V6.59A6.59,6.59,0,0,1,6.59,0H7.75V35.87c.93-1.75,2-3.64,3.21-5.65A40.51,40.51,0,0,1,15,24.6a22.25,22.25,0,0,1,5-4.3,10.83,10.83,0,0,1,5.89-1.7,6.73,6.73,0,0,1,5.15,2,6.65,6.65,0,0,1,1.9,4.73,6.88,6.88,0,0,1-1.63,4.72,12.06,12.06,0,0,1-4,3,19.86,19.86,0,0,1-5.11,1.58,37,37,0,0,1-4.88.55q6.27,9.91,10.81,14.6t6.78,4.69a6.17,6.17,0,0,1-2.48,3.45,6,6,0,0,1-2.95,1,6.11,6.11,0,0,1-3.6-1.32,23.28,23.28,0,0,1-4.11-4.15q-2.28-2.82-5.38-7.28L8.91,35.49,7.75,37.66Zm1.7-19.68h3.06c1.17,0,2.37-.05,3.61-.16a24.28,24.28,0,0,0,3.68-.58,13.48,13.48,0,0,0,3.29-1.2,6.54,6.54,0,0,0,2.36-2,5.48,5.48,0,0,0,.89-3.22A4.31,4.31,0,0,0,25.18,24a4.11,4.11,0,0,0-2.87-1.05,8.35,8.35,0,0,0-4.26,1.13,14.13,14.13,0,0,0-3.48,2.86,29.11,29.11,0,0,0-2.83,3.76C10.89,32,10.12,33.32,9.45,34.56Z"/><path class="cls-1" d="M37.27,8.14A3.89,3.89,0,0,1,38.59,5a4.8,4.8,0,0,1,6.19,0A3.89,3.89,0,0,1,46.1,8.14a4,4,0,0,1-1.32,3.21,4.84,4.84,0,0,1-6.19,0A4,4,0,0,1,37.27,8.14Zm8.29,46.1a3.61,3.61,0,0,1-3.88,3.87H37.81V24.45a5.07,5.07,0,0,1,5.08-5.08h2.67Z"/><path class="cls-1" d="M58.66,0h1V35.33q.93-2.79,2.17-5.77a26.86,26.86,0,0,1,3-5.42,16.79,16.79,0,0,1,4-4A8.77,8.77,0,0,1,74,18.52a9,9,0,0,1,5.62,1.74,13,13,0,0,1,3.68,4.46,22.16,22.16,0,0,1,2,6A33.81,33.81,0,0,1,85.93,37a31.77,31.77,0,0,1-1.09,8.33,22.53,22.53,0,0,1-3.21,7.05,16.28,16.28,0,0,1-5.31,4.88A14.58,14.58,0,0,1,69,59q-6.36,0-10.08-3.8l-7,2.87V6.75A6.75,6.75,0,0,1,58.66,0Zm1,38.28V49.74a11,11,0,0,0,2.75,6,7.37,7.37,0,0,0,5.46,2.48,6.63,6.63,0,0,0,5.19-2A14.4,14.4,0,0,0,76.2,51a28.9,28.9,0,0,0,1.55-6.55,52.57,52.57,0,0,0,.43-6.19,45.65,45.65,0,0,0-.39-5.93A24.48,24.48,0,0,0,76.51,27a11.42,11.42,0,0,0-2.25-3.87,4.22,4.22,0,0,0-3.21-1.47,5.72,5.72,0,0,0-4,1.78,18.07,18.07,0,0,0-3.29,4.38,35.31,35.31,0,0,0-2.44,5.46Q60.27,36.1,59.66,38.28Z"/><path class="cls-1" d="M120.71,54.24a3.81,3.81,0,0,1-1,2.83,3.85,3.85,0,0,1-2.83,1H113V45a42,42,0,0,1-2.41,5,23.71,23.71,0,0,1-3.21,4.46,15.59,15.59,0,0,1-4.07,3.18,10.54,10.54,0,0,1-5,1.2,9,9,0,0,1-9.53-9.38,12.53,12.53,0,0,1,2.1-6.74,14.5,14.5,0,0,1,6.58-5.35A9.36,9.36,0,0,1,93,34.09a8.78,8.78,0,0,1-1.71-5.34,8.13,8.13,0,0,1,1.24-4.5,9.83,9.83,0,0,1,3.33-3.17,16.59,16.59,0,0,1,4.77-1.86,23.69,23.69,0,0,1,5.46-.62q7.91,0,11.27,4t3.37,12.12ZM113,34.71c0-1.86-.08-3.69-.24-5.5a15.52,15.52,0,0,0-1.12-4.8A8.28,8.28,0,0,0,109,21a7.53,7.53,0,0,0-4.72-1.32,11.62,11.62,0,0,0-5.5,1.16,7.55,7.55,0,0,0-3.14,2.87,6.46,6.46,0,0,0-.82,3.76,7.13,7.13,0,0,0,1.44,3.76,9.84,9.84,0,0,0,3.64,2.86,12.93,12.93,0,0,0,5.77,1.16H113ZM113,36h-5.82a10.5,10.5,0,0,0-5.77,1.47,10,10,0,0,0-3.48,3.72A13.48,13.48,0,0,0,96.38,46a13,13,0,0,0,.28,4.81,8.82,8.82,0,0,0,1.86,3.72A4,4,0,0,0,101.65,56a5.77,5.77,0,0,0,3.57-1.32,16,16,0,0,0,3.14-3.33A34.54,34.54,0,0,0,111,47a43.25,43.25,0,0,0,2-4.45Z"/><path class="cls-1" d="M134.27,34.17q3.79-8.22,8-11.89a13.6,13.6,0,0,1,9.11-3.68A9,9,0,0,1,156.78,20a8,8,0,0,1,2.79,4,21.94,21.94,0,0,1,1,6.32c.08,2.47.11,5.29.11,8.44v15.5a3.81,3.81,0,0,1-1,2.83,3.85,3.85,0,0,1-2.83,1H153V38.74c0-3.36-.06-6.16-.16-8.41a25.94,25.94,0,0,0-.7-5.38,6,6,0,0,0-1.47-2.87,3.63,3.63,0,0,0-2.56-.85c-2.37,0-4.79,1.34-7.24,4a37.56,37.56,0,0,0-6.55,10.92V54.24a3.59,3.59,0,0,1-3.87,3.87h-3.88V5.54A5.55,5.55,0,0,1,132.07,0h2.2Z"/></g></g></svg>